<?xml version="1.0" encoding="UTF-8"?>
<svg id="Capa_1" data-name="Capa 1" xmlns="http://www.w3.org/2000/svg" viewBox="0 0 102 19.27">
  <defs>
    <style>
      .cls-1 {
        fill: #878787;
      }
    </style>
  </defs>
  <circle class="cls-1" cx="8.43" cy="2.34" r="2.34"/>
  <circle class="cls-1" cx="1.24" cy="7.96" r="1.15"/>
  <circle class="cls-1" cx="22.29" cy="12.3" r="1.15"/>
  <circle class="cls-1" cx="14.78" cy="4.75" r="2.34"/>
  <circle class="cls-1" cx="19.42" cy="16.93" r="2.34"/>
  <circle class="cls-1" cx="28.05" cy="15.56" r="2.34"/>
  <circle class="cls-1" cx="2.34" cy="13.5" r="2.34"/>
  <circle class="cls-1" cx="12.33" cy="11.45" r="2.34"/>
  <path class="cls-1" d="m2.39,14.06c-.34,0-.61-.27-.61-.61,0-.1.03-.2.08-.29L8.03,1.95c.16-.3.53-.4.83-.24.3.16.4.53.24.83,0,0,0,0,0,0L2.93,13.74c-.11.2-.31.32-.54.32Z"/>
  <path class="cls-1" d="m12.24,12.05c-.25,0-.47-.15-.56-.38L7.92,2.64c-.13-.31.02-.67.33-.8.31-.13.67.02.8.33,0,0,0,0,0,0l3.75,9.04c.13.31-.02.67-.33.8-.07.03-.15.05-.23.05Z"/>
  <path class="cls-1" d="m19.51,17.5c-.25,0-.48-.15-.57-.39l-4.64-11.85c-.12-.31.03-.67.35-.79s.67.03.79.35l4.64,11.85c.12.31-.03.67-.35.79-.07.03-.15.04-.22.04h0Z"/>
  <path class="cls-1" d="m19.51,17.56c-.34,0-.61-.27-.61-.61,0-.3.22-.56.52-.6l8.46-1.23c.33-.05.64.18.69.52.05.33-.18.64-.52.69h0l-8.46,1.23s-.06,0-.09,0Z"/>
  <path class="cls-1" d="m39.55,13.46h3.14l-3.46-10.16h-3.27l-3.47,10.16h3.14l.32-1.18h3.28l.32,1.18Zm-3.02-3.37l1.06-3.95,1.06,3.95h-2.12Z"/>
  <path class="cls-1" d="m43.66,13.46h6.53v-2.27h-3.51v-1.7h3.51v-2.16h-3.51v-1.77h3.51v-2.27h-6.53v10.16Z"/>
  <path class="cls-1" d="m56.79,13.77c3.53,0,5.6-2.51,5.6-5.4s-2.08-5.4-5.6-5.4-5.6,2.51-5.6,5.4,2.08,5.4,5.6,5.4Zm0-2.7c-1.63,0-2.45-1.25-2.45-2.7s.83-2.7,2.45-2.7,2.47,1.25,2.45,2.7c.01,1.45-.81,2.7-2.45,2.7Z"/>
  <path class="cls-1" d="m63.57,13.46h6.48v-2.6h-3.46V3.29h-3.02v10.16Z"/>
  <path class="cls-1" d="m71.9,13.46h5.46v-.61h-4.82V3.29h-.64v10.16Z"/>
  <path class="cls-1" d="m85.24,13.46h.68l-3.47-10.16h-.6l-3.47,10.16h.68l.68-2.09h4.79l.7,2.09Zm-5.29-2.69l2.19-6.65,2.21,6.65h-4.4Z"/>
  <path class="cls-1" d="m91.85,8.33c1.12-.2,1.9-1.05,1.9-2.42,0-1.64-1.18-2.61-2.96-2.61h-3.24v10.16h3.28c1.8,0,2.99-1.02,2.99-2.67,0-1.36-.87-2.27-1.97-2.45Zm-1.07-4.46c1.42,0,2.34.76,2.34,2.09.06,1.09-.77,2.03-1.87,2.09-.06,0-.13,0-.19,0h-2.86V3.87h2.58Zm.06,9h-2.64v-4.24h2.92c1.12-.03,2.05.85,2.08,1.96,0,.05,0,.09,0,.14,0,1.35-.93,2.13-2.35,2.13h0Z"/>
  <path class="cls-1" d="m98.76,13.66c2.02,0,3.24-1.07,3.24-2.77,0-1.41-.77-2.31-2.15-2.63l-1.74-.44c-1.34-.3-1.99-.97-1.99-2.12,0-1.21.97-2.05,2.45-2.05,1.58,0,2.56.9,2.56,2.41h.64c0-1.86-1.23-2.98-3.18-2.98s-3.11,1.06-3.11,2.63c0,1.44.74,2.28,2.25,2.61l1.74.45c1.23.29,1.89.99,1.89,2.11,0,1.36-.96,2.19-2.61,2.19-1.79,0-2.95-1.06-2.95-2.69h-.64c0,1.99,1.39,3.27,3.6,3.27Z"/>
</svg>