<?xml version="1.0" encoding="utf-8"?>
<!-- Generator: Adobe Illustrator 27.2.0, SVG Export Plug-In . SVG Version: 6.00 Build 0)  -->
<svg version="1.1" id="Capa_1" xmlns="http://www.w3.org/2000/svg" xmlns:xlink="http://www.w3.org/1999/xlink" x="0px" y="0px"
	 viewBox="0 0 102.85 117.24" style="enable-background:new 0 0 102.85 117.24;" xml:space="preserve">
<style type="text/css">
	.st0{fill:#EDEDED;}
</style>
<g>
	<g>
		<g>
			<path class="st0" d="M55.85,57.17v60.08l47-25.65V31.51L55.85,57.17z M72.68,73.23L63.76,84.2l8.8,1.3l-0.06,6.31l-12.58-2.27
				l0.06-6.57l12.74-16.01L72.68,73.23z M76.86,99.71l-3.7,2.01l9.2-52.34l3.7-2.01L76.86,99.71z M98.96,68.37L86.21,84.38
				l0.06-6.31l8.91-10.92l-8.8-1.35l0.06-6.26l12.58,2.27L98.96,68.37z"/>
			<polygon class="st0" points="0.79,31.51 0.79,91.59 48.33,117.24 48.33,57.17 			"/>
			<polygon class="st0" points="51.8,0 3.54,26.07 51.8,52.14 99.72,26.07 			"/>
		</g>
	</g>
</g>
</svg>
