<?xml version="1.0" encoding="UTF-8"?>
<svg id="Capa_1" data-name="Capa 1" xmlns="http://www.w3.org/2000/svg" viewBox="0 0 102 17.77">
  <defs>
    <style>
      .cls-1 {
        fill: #878787;
      }
    </style>
  </defs>
  <path class="cls-1" d="m4.62.08c-.88.2-1.67.55-2.33,1.04C-.05,2.9-.7,6.21.82,8.73c.17.28.34.51.37.51.07,0,4.73-6.09,4.78-6.25.03-.07-.19-.08-1.13-.05-1.6.05-1.95.17-2.38.83-.2.3-.38.42-.38.25,0-.04.1-.44.21-.88l.21-.81h2.91c1.61,0,2.92,0,2.92.02s-1.06,1.43-2.34,3.15l-2.34,3.12,1.06.05c2.69.11,3.15.08,3.73-.28.25-.15.66-.59.87-.92.16-.27.34-.33.29-.1-.02.08-.14.36-.25.63-.28.63-.8,1.17-1.35,1.42-.36.16-.48.18-1.02.18-.34,0-1.15-.08-1.8-.18-1.26-.19-2.04-.21-2.66-.1-.49.08-1,.25-1,.32,0,.08.64.64,1.07.92.84.58,1.79.89,2.89.94,2.38.12,4.44-1.07,5.52-3.22.36-.74.5-1.3.54-2.27.07-1.81-.48-3.2-1.75-4.43-.81-.78-1.73-1.26-2.8-1.49-.59-.12-1.8-.13-2.33-.01Z"/>
  <path class="cls-1" d="m56.59.28c-.18.4-.22.87-.12,1.27.05.2.36.83.78,1.56.39.68.74,1.34.78,1.48.1.36.09.74-.03,1.09-.11.32-.19.38-.23.19-.02-.06-.48-.89-1.02-1.84s-1.01-1.8-1.03-1.91c-.05-.23-.1-.22-.25.07-.12.27-.2,1.05-.14,1.41.03.12.35.76.73,1.42.38.66.73,1.31.78,1.45.13.36.11,1-.03,1.31l-.12.26-.07-.18c-.04-.1-.43-.8-.87-1.56-.85-1.48-.96-1.71-.96-2.1,0-.24,0-.25-.18-.2-.41.1-1.06.39-1.47.66-.71.46-1.03.96-1.03,1.6,0,1.84,3.52,3.04,6.62,2.26,1.09-.27,2.1-.93,2.46-1.59.2-.37.19-1.01,0-1.38-.3-.56-1.06-1.11-1.97-1.43-.35-.12-.43-.18-.48-.33-.03-.1-.08-.28-.12-.4s-.43-.84-.87-1.61c-.45-.76-.83-1.47-.85-1.56-.07-.28-.15-.26-.29.05Z"/>
  <path class="cls-1" d="m64.14,2.45c-.47.16-.87.55-.99.95-.32,1.09.14,1.82,1.51,2.42,1.07.46,1.32.67,1.32,1.15,0,.33-.33.62-.76.68-.44.07-1.17-.01-1.62-.17-.21-.07-.41-.11-.44-.08-.03.03-.08.23-.12.44-.09.48-.07.5.59.64.63.15,1.7.14,2.2-.02.91-.28,1.32-.96,1.17-1.9-.1-.66-.51-1.04-1.69-1.56-.8-.35-1.14-.63-1.21-.95-.09-.49.35-.81,1.1-.81.36,0,1,.11,1.29.23.08.03.12-.03.18-.25.13-.53.1-.66-.17-.76-.14-.05-.65-.09-1.16-.1-.72-.02-.98,0-1.22.08Z"/>
  <path class="cls-1" d="m77.63,2.45l-.18.03v2.54c0,2.76,0,2.82.38,3.2.24.25.78.4,1.31.35.68-.06.67-.05.76-.71l.04-.31-.21.07c-.12.03-.36.06-.53.06-.68,0-.76-.19-.76-1.69v-1.11h1.42l.04-.2c.02-.11.04-.31.04-.42v-.22h-1.5v-1.63h-.31c-.18.01-.39.03-.49.05Z"/>
  <path class="cls-1" d="m93.08,2.46c-.16.05-.16.06-.18.75l-.02.7-.34-.04c-.53-.07-1.25.07-1.7.31-.7.38-1.02,1.04-1.02,2.1,0,.7.11,1.13.41,1.57.51.77,1.84.98,2.5.4l.21-.19v.4h.98V2.4h-.34c-.19.01-.42.03-.51.06Zm-.34,2.33c.14.04.14.05.14,1.36v1.32l-.32.14c-.98.42-1.71-.16-1.71-1.34,0-.77.31-1.29.85-1.45.21-.07.83-.08,1.04-.03Z"/>
  <path class="cls-1" d="m38.67,2.92c-1.18.14-2.07.73-2.53,1.66-.18.37-.21.51-.24,1.07-.03.53,0,.72.11,1.09.23.78.78,1.35,1.57,1.66.51.2,1.7.25,2.45.09l.55-.12v-1.07l-.46.23c-.44.23-.5.24-1.09.24-.68,0-.85-.06-1.28-.44-.54-.48-.77-1.49-.51-2.3.31-.98,1.37-1.52,2.44-1.24.23.06.52.17.64.23.12.07.23.13.25.13.01,0,.03-.25.03-.55v-.55l-.34-.07c-.54-.1-1.09-.12-1.56-.07Z"/>
  <path class="cls-1" d="m16.07,3.61c-.14.31-.23.57-.22.59s.2-.05.41-.13c.51-.21,1.23-.31,1.92-.29l.56.02-1.62,2.28c-.89,1.25-1.62,2.3-1.62,2.33,0,.03,1.07.05,2.38.05h2.38l.23-.5c.12-.27.24-.57.27-.66l.04-.16-.32.16c-.59.3-.98.38-2.04.42-.85.03-1,.03-.95-.05.07-.1,3.08-4.41,3.18-4.54.05-.06-.39-.08-2.14-.08h-2.21l-.25.56Z"/>
  <path class="cls-1" d="m21.75,3.26c.11.2.13.4.15,2.04.03,1.73.03,1.84.17,2.15.36.78,1.14,1.21,2.23,1.21.75,0,1.34-.2,1.79-.6.52-.46.62-.92.62-3.05,0-1.46,0-1.48.16-1.71l.16-.23h-.91c-.91,0-.91,0-.78.13.07.07.14.2.16.27.02.08.03.94.02,1.92-.02,1.97-.01,1.95-.51,2.29-.2.14-.29.15-.72.13-.53-.02-.73-.11-.99-.47-.13-.17-.14-.26-.14-2.03s0-1.85.15-2.05l.15-.2h-1.82l.12.21Z"/>
  <path class="cls-1" d="m28.02,3.25l.15.21v4.58l-.15.21-.15.21h.88c.49,0,.89-.01.89-.03s-.06-.12-.14-.22c-.12-.16-.14-.31-.17-1.07-.02-.49-.03-.89,0-.89s.22.23.45.5c.66.81,1.3,1.45,1.57,1.59.19.1.38.12.91.12h.67l-.72-.74c-.4-.4-.9-.94-1.13-1.2l-.4-.47.29-.13c.63-.27.96-.66,1.06-1.22.09-.59-.27-1.18-.91-1.46-.32-.15-.42-.16-1.79-.18l-1.46-.02.16.2Zm2.32.63c.45.23.59.83.29,1.25-.16.21-.62.44-1.01.5l-.31.04v-1.98l.39.04c.21.02.5.09.64.16Z"/>
  <path class="cls-1" d="m33.42,3.22l.16.17.02,2.29.02,2.29-.16.24-.16.24h1.81l-.16-.23-.16-.24V3.53l.16-.24.16-.23h-1.84l.16.17Z"/>
  <path class="cls-1" d="m41.59,3.29l.16.24v4.46l-.16.24-.16.23h.87c.48,0,.88-.01.88-.03,0-.01-.06-.12-.13-.24-.12-.19-.13-.33-.13-1.18v-.96h2.35l-.02.99c-.02.92-.03,1.02-.17,1.21l-.15.21h.88c.49,0,.89-.02.89-.05,0-.03-.06-.12-.13-.21-.12-.16-.13-.28-.13-2.42v-2.25l.16-.24.16-.23h-1.81l.16.23c.16.23.16.29.16,1.14v.91h-2.34v-.91c0-.85,0-.91.16-1.14l.16-.23h-1.81l.16.23Z"/>
  <path class="cls-1" d="m69.43,3.91c-.78.11-1.26.45-1.57,1.08-.2.4-.22.5-.24,1.13-.03.79.06,1.21.37,1.7.5.78,1.78,1.01,2.5.44l.24-.2v.4h.98v-4.36l-.25-.07c-.64-.17-1.4-.22-2.03-.12Zm1.22,2.21v1.34s-.31.14-.31.14c-.96.41-1.71-.16-1.71-1.33,0-1.04.51-1.55,1.51-1.51h.49s.02,1.35.02,1.35Z"/>
  <path class="cls-1" d="m73.74,3.91c-.23.03-.57.08-.76.12l-.35.07v4.36h1.04v-3.63l.15-.04c.24-.07.98-.04,1.22.05.14.05.27.16.36.31.12.21.13.36.15,1.77l.03,1.55h.97l-.02-1.78-.02-1.77-.18-.3c-.36-.61-1.3-.87-2.59-.7Z"/>
  <path class="cls-1" d="m82,3.91c-.78.11-1.26.45-1.57,1.08-.2.4-.22.5-.24,1.13-.03.79.06,1.21.37,1.7.5.78,1.78,1.01,2.5.44l.24-.2v.4h.98v-4.36l-.26-.07c-.3-.08-1.25-.2-1.5-.19-.09,0-.33.03-.52.07Zm1.22,2.21v1.34s-.22.11-.22.11c-1.02.49-1.83-.12-1.8-1.35.01-.98.55-1.48,1.52-1.45h.49s.02,1.35.02,1.35Z"/>
  <path class="cls-1" d="m86.31,3.91c-.23.03-.57.08-.76.12l-.35.07v4.36h1.04v-3.64l.23-.05c.36-.07,1.09,0,1.28.13.29.19.31.33.31,1.99v1.56h1.05l-.02-1.78-.02-1.77-.18-.31c-.36-.61-1.32-.86-2.59-.7Z"/>
  <path class="cls-1" d="m96.27,3.9c-.68.12-1.08.42-1.37,1.01-.19.38-.21.51-.24,1.11-.04.84.11,1.41.48,1.84.52.61,1.51.86,2.6.66.65-.12.72-.18.8-.69.03-.24.06-.45.05-.46,0-.01-.18.05-.37.12-.38.15-1.26.23-1.65.16s-.89-.61-.89-.95c0-.04.51-.07,1.49-.07h1.5l.05-.3c.15-1.02-.27-1.98-1-2.29-.36-.16-1.04-.22-1.45-.14Zm1.08,1.04c.19.18.35.51.35.72,0,.12-.04.13-1.04.13h-1.04l.09-.29c.1-.35.19-.46.46-.63.29-.18.94-.14,1.18.08Z"/>
  <path class="cls-1" d="m100.4,3.91c-.25.03-.56.09-.7.13l-.25.07v4.36h1.04v-1.84s.03-1.84.03-1.84l.69-.02.7-.02.04-.2c.02-.11.04-.29.04-.41,0-.2-.01-.21-.3-.25-.37-.05-.7-.04-1.3.03Z"/>
  <path class="cls-1" d="m34.19,14.69c-.33.14-.46.33-.46.72,0,.46.16.64.82.94.56.26.72.42.65.69-.07.27-.31.37-.8.33-.25-.02-.51-.05-.59-.08-.14-.05-.15-.03-.13.17.03.26.14.31.79.31.79.01,1.15-.27,1.15-.89,0-.3-.03-.38-.18-.53-.1-.1-.36-.25-.59-.33-.7-.25-.89-.56-.57-.88.18-.18.48-.21.89-.08.27.08.38.03.38-.21,0-.23-.94-.33-1.37-.15Z"/>
  <path class="cls-1" d="m49.08,14.67c-.6.23-.89.71-.89,1.54,0,1.07.46,1.56,1.46,1.56.54,0,.76-.08.76-.28,0-.15-.01-.15-.61-.15-.57,0-.63,0-.79-.16-.28-.26-.38-.51-.38-.98,0-.78.35-1.21,1-1.21.2,0,.45.03.56.06.17.05.2.03.27-.12.07-.16.07-.18-.1-.24-.29-.12-1-.14-1.28-.03Z"/>
  <path class="cls-1" d="m68.45,14.67c-.5.18-.79.52-.91,1.07-.13.66.03,1.32.4,1.69.25.25.55.34,1.07.33.57,0,.71-.07.74-.27l.02-.18-.54.03c-.65.05-.91-.07-1.12-.47-.19-.35-.19-1.07,0-1.39.27-.46.74-.62,1.31-.46.32.09.41.05.42-.2,0-.22-.91-.33-1.37-.16Z"/>
  <path class="cls-1" d="m29.44,16.18v1.53h.39v-3.06h-.39v1.53Z"/>
  <path class="cls-1" d="m30.61,16.18v1.53h.39v-1.19s.03-1.19.03-1.19l.78,1.19.77,1.19h.51v-3.06h-.39v1.21s-.03,1.21-.03,1.21l-.78-1.21-.78-1.21h-.5v1.53Z"/>
  <path class="cls-1" d="m36.21,15.84c0,1.39.05,1.54.52,1.78.6.31,1.45.12,1.71-.37.1-.2.12-.39.12-1.41v-1.19h-.39v1.08c0,1.45-.1,1.65-.81,1.65-.23,0-.34-.04-.5-.19l-.21-.19-.02-1.18-.02-1.18h-.38v1.19Z"/>
  <path class="cls-1" d="m39.34,16.18v1.53h.46v-1.24h.56l.35.62c.35.61.36.62.61.62.13,0,.24-.01.24-.03,0-.01-.18-.31-.38-.66l-.38-.63.18-.12c.28-.16.41-.47.38-.85-.06-.59-.38-.77-1.35-.77h-.65v1.53Zm1.1-1.15c.35.07.46.2.46.53,0,.36-.23.51-.72.51h-.38v-1.11h.18c.1,0,.31.03.46.06Z"/>
  <path class="cls-1" d="m43.03,14.69c-.05.09-1.15,2.92-1.15,2.97,0,.03.1.05.21.05.2,0,.22-.02.37-.44l.16-.44.6-.02.59-.02.18.46c.17.44.18.46.4.46.12,0,.22,0,.22-.02,0,0-.26-.69-.58-1.51-.57-1.47-.58-1.5-.78-1.52-.1-.01-.21,0-.23.03Z"/>
  <path class="cls-1" d="m45.07,16.18v1.53h.39v-1.19s.03-1.18.03-1.18l.76,1.17.76,1.17.27.02.27.02v-3.07h-.48l.03,1.21c.02.66.03,1.21.03,1.21s-.36-.54-.79-1.21l-.78-1.21h-.49v1.53Z"/>
  <path class="cls-1" d="m51.06,16.18v1.53h1.76v-.33h-1.37v-1.11h1.3v-.33h-1.3v-.91h1.37v-.39h-1.76v1.53Z"/>
  <path class="cls-1" d="m55.08,15.61c-.2.53-.47,1.22-.6,1.54l-.22.57.23-.02c.23-.02.24-.03.4-.46l.16-.44h1.19l.16.44c.16.43.17.44.41.46l.25.02-.09-.21c-.05-.12-.32-.81-.6-1.54l-.51-1.32h-.21c-.2,0-.2,0-.57.96Z"/>
  <path class="cls-1" d="m57.51,16.18v1.53h.39v-1.19s0-1.19,0-1.19l.23.59c.12.32.33.86.46,1.19.21.57.24.61.42.61s.2-.04.5-.8c.17-.44.38-.99.48-1.23l.17-.43-.02,1.23-.03,1.23h.47v-3.07l-.31.02-.31.02-.46,1.19c-.25.65-.48,1.17-.5,1.14-.03-.03-.15-.33-.27-.66s-.33-.86-.44-1.16l-.21-.53h-.57v1.53Z"/>
  <path class="cls-1" d="m61.36,16.18v1.53h1.76v-.33h-1.37v-1.11h1.3v-.33h-1.3v-.91h1.37v-.39h-1.76v1.53Z"/>
  <path class="cls-1" d="m63.7,16.18v1.53h.46v-1.24h.56l.35.62c.35.61.36.62.61.62.13,0,.24-.01.24-.03s-.18-.31-.39-.66l-.38-.63.19-.11c.28-.17.41-.48.38-.85-.06-.59-.38-.77-1.35-.77h-.65v1.53Zm1-1.17c.38.05.57.22.57.52,0,.37-.23.55-.72.55h-.39v-.55c0-.62-.03-.59.54-.51Z"/>
  <path class="cls-1" d="m66.44,16.18v1.53h.39v-3.06h-.39v1.53Z"/>
  <path class="cls-1" d="m70.7,16.19l-.6,1.53.23-.02c.23-.02.25-.03.4-.46l.16-.44h1.2l.15.43c.16.46.21.5.47.47l.16-.02-.29-.75c-.94-2.44-.87-2.28-1.09-2.28h-.2l-.59,1.54Z"/>
</svg>